%TF.GenerationSoftware,KiCad,Pcbnew,(5.1.10)-1*%
%TF.CreationDate,2021-11-22T19:14:46+01:00*%
%TF.ProjectId,Adapter-VCNL4200,41646170-7465-4722-9d56-434e4c343230,rev?*%
%TF.SameCoordinates,Original*%
%TF.FileFunction,Legend,Bot*%
%TF.FilePolarity,Positive*%
%FSLAX46Y46*%
G04 Gerber Fmt 4.6, Leading zero omitted, Abs format (unit mm)*
G04 Created by KiCad (PCBNEW (5.1.10)-1) date 2021-11-22 19:14:46*
%MOMM*%
%LPD*%
G01*
G04 APERTURE LIST*
%ADD10C,0.120000*%
%ADD11C,0.150000*%
G04 APERTURE END LIST*
D10*
%TO.C,R4*%
X155772936Y-136265000D02*
X156227064Y-136265000D01*
X155772936Y-137735000D02*
X156227064Y-137735000D01*
%TO.C,R3*%
X155772936Y-130265000D02*
X156227064Y-130265000D01*
X155772936Y-131735000D02*
X156227064Y-131735000D01*
%TO.C,R2*%
X155772936Y-128265000D02*
X156227064Y-128265000D01*
X155772936Y-129735000D02*
X156227064Y-129735000D01*
%TO.C,R1*%
X155772936Y-126265000D02*
X156227064Y-126265000D01*
X155772936Y-127735000D02*
X156227064Y-127735000D01*
%TO.C,J2*%
X162620000Y-126940000D02*
X161290000Y-126940000D01*
X162620000Y-128270000D02*
X162620000Y-126940000D01*
X162620000Y-129540000D02*
X159960000Y-129540000D01*
X159960000Y-129540000D02*
X159960000Y-137220000D01*
X162620000Y-129540000D02*
X162620000Y-137220000D01*
X162620000Y-137220000D02*
X159960000Y-137220000D01*
%TO.C,J1*%
X152460000Y-126940000D02*
X151130000Y-126940000D01*
X152460000Y-128270000D02*
X152460000Y-126940000D01*
X152460000Y-129540000D02*
X149800000Y-129540000D01*
X149800000Y-129540000D02*
X149800000Y-137220000D01*
X152460000Y-129540000D02*
X152460000Y-137220000D01*
X152460000Y-137220000D02*
X149800000Y-137220000D01*
%TO.C,C2*%
X155738748Y-132265000D02*
X156261252Y-132265000D01*
X155738748Y-133735000D02*
X156261252Y-133735000D01*
%TO.C,C1*%
X155738748Y-134265000D02*
X156261252Y-134265000D01*
X155738748Y-135735000D02*
X156261252Y-135735000D01*
%TO.C,R4*%
D11*
X158916666Y-137452380D02*
X159250000Y-136976190D01*
X159488095Y-137452380D02*
X159488095Y-136452380D01*
X159107142Y-136452380D01*
X159011904Y-136500000D01*
X158964285Y-136547619D01*
X158916666Y-136642857D01*
X158916666Y-136785714D01*
X158964285Y-136880952D01*
X159011904Y-136928571D01*
X159107142Y-136976190D01*
X159488095Y-136976190D01*
X158059523Y-136785714D02*
X158059523Y-137452380D01*
X158297619Y-136404761D02*
X158535714Y-137119047D01*
X157916666Y-137119047D01*
%TO.C,R3*%
X158916666Y-131452380D02*
X159250000Y-130976190D01*
X159488095Y-131452380D02*
X159488095Y-130452380D01*
X159107142Y-130452380D01*
X159011904Y-130500000D01*
X158964285Y-130547619D01*
X158916666Y-130642857D01*
X158916666Y-130785714D01*
X158964285Y-130880952D01*
X159011904Y-130928571D01*
X159107142Y-130976190D01*
X159488095Y-130976190D01*
X158583333Y-130452380D02*
X157964285Y-130452380D01*
X158297619Y-130833333D01*
X158154761Y-130833333D01*
X158059523Y-130880952D01*
X158011904Y-130928571D01*
X157964285Y-131023809D01*
X157964285Y-131261904D01*
X158011904Y-131357142D01*
X158059523Y-131404761D01*
X158154761Y-131452380D01*
X158440476Y-131452380D01*
X158535714Y-131404761D01*
X158583333Y-131357142D01*
%TO.C,R2*%
X158916666Y-129452380D02*
X159250000Y-128976190D01*
X159488095Y-129452380D02*
X159488095Y-128452380D01*
X159107142Y-128452380D01*
X159011904Y-128500000D01*
X158964285Y-128547619D01*
X158916666Y-128642857D01*
X158916666Y-128785714D01*
X158964285Y-128880952D01*
X159011904Y-128928571D01*
X159107142Y-128976190D01*
X159488095Y-128976190D01*
X158535714Y-128547619D02*
X158488095Y-128500000D01*
X158392857Y-128452380D01*
X158154761Y-128452380D01*
X158059523Y-128500000D01*
X158011904Y-128547619D01*
X157964285Y-128642857D01*
X157964285Y-128738095D01*
X158011904Y-128880952D01*
X158583333Y-129452380D01*
X157964285Y-129452380D01*
%TO.C,R1*%
X158916666Y-127452380D02*
X159250000Y-126976190D01*
X159488095Y-127452380D02*
X159488095Y-126452380D01*
X159107142Y-126452380D01*
X159011904Y-126500000D01*
X158964285Y-126547619D01*
X158916666Y-126642857D01*
X158916666Y-126785714D01*
X158964285Y-126880952D01*
X159011904Y-126928571D01*
X159107142Y-126976190D01*
X159488095Y-126976190D01*
X157964285Y-127452380D02*
X158535714Y-127452380D01*
X158250000Y-127452380D02*
X158250000Y-126452380D01*
X158345238Y-126595238D01*
X158440476Y-126690476D01*
X158535714Y-126738095D01*
%TO.C,C2*%
X158916666Y-133357142D02*
X158964285Y-133404761D01*
X159107142Y-133452380D01*
X159202380Y-133452380D01*
X159345238Y-133404761D01*
X159440476Y-133309523D01*
X159488095Y-133214285D01*
X159535714Y-133023809D01*
X159535714Y-132880952D01*
X159488095Y-132690476D01*
X159440476Y-132595238D01*
X159345238Y-132500000D01*
X159202380Y-132452380D01*
X159107142Y-132452380D01*
X158964285Y-132500000D01*
X158916666Y-132547619D01*
X158535714Y-132547619D02*
X158488095Y-132500000D01*
X158392857Y-132452380D01*
X158154761Y-132452380D01*
X158059523Y-132500000D01*
X158011904Y-132547619D01*
X157964285Y-132642857D01*
X157964285Y-132738095D01*
X158011904Y-132880952D01*
X158583333Y-133452380D01*
X157964285Y-133452380D01*
%TO.C,C1*%
X158916666Y-135357142D02*
X158964285Y-135404761D01*
X159107142Y-135452380D01*
X159202380Y-135452380D01*
X159345238Y-135404761D01*
X159440476Y-135309523D01*
X159488095Y-135214285D01*
X159535714Y-135023809D01*
X159535714Y-134880952D01*
X159488095Y-134690476D01*
X159440476Y-134595238D01*
X159345238Y-134500000D01*
X159202380Y-134452380D01*
X159107142Y-134452380D01*
X158964285Y-134500000D01*
X158916666Y-134547619D01*
X157964285Y-135452380D02*
X158535714Y-135452380D01*
X158250000Y-135452380D02*
X158250000Y-134452380D01*
X158345238Y-134595238D01*
X158440476Y-134690476D01*
X158535714Y-134738095D01*
%TD*%
M02*
