%TF.GenerationSoftware,KiCad,Pcbnew,(5.1.10)-1*%
%TF.CreationDate,2021-11-22T19:14:46+01:00*%
%TF.ProjectId,Adapter-VCNL4200,41646170-7465-4722-9d56-434e4c343230,rev?*%
%TF.SameCoordinates,Original*%
%TF.FileFunction,Soldermask,Top*%
%TF.FilePolarity,Negative*%
%FSLAX46Y46*%
G04 Gerber Fmt 4.6, Leading zero omitted, Abs format (unit mm)*
G04 Created by KiCad (PCBNEW (5.1.10)-1) date 2021-11-22 19:14:46*
%MOMM*%
%LPD*%
G01*
G04 APERTURE LIST*
%ADD10O,1.700000X1.700000*%
%ADD11C,1.700000*%
%ADD12R,1.700000X1.700000*%
G04 APERTURE END LIST*
%TO.C,U1*%
G36*
G01*
X158750000Y-129200000D02*
X156950000Y-129200000D01*
G75*
G02*
X156650000Y-128900000I0J300000D01*
G01*
X156650000Y-128300000D01*
G75*
G02*
X156950000Y-128000000I300000J0D01*
G01*
X158750000Y-128000000D01*
G75*
G02*
X159050000Y-128300000I0J-300000D01*
G01*
X159050000Y-128900000D01*
G75*
G02*
X158750000Y-129200000I-300000J0D01*
G01*
G37*
G36*
G01*
X158750000Y-130900000D02*
X156950000Y-130900000D01*
G75*
G02*
X156650000Y-130600000I0J300000D01*
G01*
X156650000Y-130000000D01*
G75*
G02*
X156950000Y-129700000I300000J0D01*
G01*
X158750000Y-129700000D01*
G75*
G02*
X159050000Y-130000000I0J-300000D01*
G01*
X159050000Y-130600000D01*
G75*
G02*
X158750000Y-130900000I-300000J0D01*
G01*
G37*
G36*
G01*
X158750000Y-132600000D02*
X156950000Y-132600000D01*
G75*
G02*
X156650000Y-132300000I0J300000D01*
G01*
X156650000Y-131700000D01*
G75*
G02*
X156950000Y-131400000I300000J0D01*
G01*
X158750000Y-131400000D01*
G75*
G02*
X159050000Y-131700000I0J-300000D01*
G01*
X159050000Y-132300000D01*
G75*
G02*
X158750000Y-132600000I-300000J0D01*
G01*
G37*
G36*
G01*
X158750000Y-134300000D02*
X156950000Y-134300000D01*
G75*
G02*
X156650000Y-134000000I0J300000D01*
G01*
X156650000Y-133400000D01*
G75*
G02*
X156950000Y-133100000I300000J0D01*
G01*
X158750000Y-133100000D01*
G75*
G02*
X159050000Y-133400000I0J-300000D01*
G01*
X159050000Y-134000000D01*
G75*
G02*
X158750000Y-134300000I-300000J0D01*
G01*
G37*
G36*
G01*
X158750000Y-136000000D02*
X156950000Y-136000000D01*
G75*
G02*
X156650000Y-135700000I0J300000D01*
G01*
X156650000Y-135100000D01*
G75*
G02*
X156950000Y-134800000I300000J0D01*
G01*
X158750000Y-134800000D01*
G75*
G02*
X159050000Y-135100000I0J-300000D01*
G01*
X159050000Y-135700000D01*
G75*
G02*
X158750000Y-136000000I-300000J0D01*
G01*
G37*
G36*
G01*
X155550000Y-136000000D02*
X153750000Y-136000000D01*
G75*
G02*
X153450000Y-135700000I0J300000D01*
G01*
X153450000Y-135100000D01*
G75*
G02*
X153750000Y-134800000I300000J0D01*
G01*
X155550000Y-134800000D01*
G75*
G02*
X155850000Y-135100000I0J-300000D01*
G01*
X155850000Y-135700000D01*
G75*
G02*
X155550000Y-136000000I-300000J0D01*
G01*
G37*
G36*
G01*
X155550000Y-134300000D02*
X153750000Y-134300000D01*
G75*
G02*
X153450000Y-134000000I0J300000D01*
G01*
X153450000Y-133400000D01*
G75*
G02*
X153750000Y-133100000I300000J0D01*
G01*
X155550000Y-133100000D01*
G75*
G02*
X155850000Y-133400000I0J-300000D01*
G01*
X155850000Y-134000000D01*
G75*
G02*
X155550000Y-134300000I-300000J0D01*
G01*
G37*
G36*
G01*
X155550000Y-132600000D02*
X153750000Y-132600000D01*
G75*
G02*
X153450000Y-132300000I0J300000D01*
G01*
X153450000Y-131700000D01*
G75*
G02*
X153750000Y-131400000I300000J0D01*
G01*
X155550000Y-131400000D01*
G75*
G02*
X155850000Y-131700000I0J-300000D01*
G01*
X155850000Y-132300000D01*
G75*
G02*
X155550000Y-132600000I-300000J0D01*
G01*
G37*
G36*
G01*
X155550000Y-130900000D02*
X153750000Y-130900000D01*
G75*
G02*
X153450000Y-130600000I0J300000D01*
G01*
X153450000Y-130000000D01*
G75*
G02*
X153750000Y-129700000I300000J0D01*
G01*
X155550000Y-129700000D01*
G75*
G02*
X155850000Y-130000000I0J-300000D01*
G01*
X155850000Y-130600000D01*
G75*
G02*
X155550000Y-130900000I-300000J0D01*
G01*
G37*
G36*
G01*
X155550000Y-129200000D02*
X153750000Y-129200000D01*
G75*
G02*
X153450000Y-128900000I0J300000D01*
G01*
X153450000Y-128300000D01*
G75*
G02*
X153750000Y-128000000I300000J0D01*
G01*
X155550000Y-128000000D01*
G75*
G02*
X155850000Y-128300000I0J-300000D01*
G01*
X155850000Y-128900000D01*
G75*
G02*
X155550000Y-129200000I-300000J0D01*
G01*
G37*
%TD*%
D10*
%TO.C,J2*%
X161290000Y-135890000D03*
X161290000Y-133350000D03*
X161290000Y-130810000D03*
D11*
X161290000Y-128270000D03*
%TD*%
D10*
%TO.C,J1*%
X151130000Y-135890000D03*
X151130000Y-133350000D03*
X151130000Y-130810000D03*
D12*
X151130000Y-128270000D03*
%TD*%
M02*
