%TF.GenerationSoftware,KiCad,Pcbnew,(5.1.10)-1*%
%TF.CreationDate,2021-11-22T19:14:46+01:00*%
%TF.ProjectId,Adapter-VCNL4200,41646170-7465-4722-9d56-434e4c343230,rev?*%
%TF.SameCoordinates,Original*%
%TF.FileFunction,Copper,L2,Bot*%
%TF.FilePolarity,Positive*%
%FSLAX46Y46*%
G04 Gerber Fmt 4.6, Leading zero omitted, Abs format (unit mm)*
G04 Created by KiCad (PCBNEW (5.1.10)-1) date 2021-11-22 19:14:46*
%MOMM*%
%LPD*%
G01*
G04 APERTURE LIST*
%TA.AperFunction,ComponentPad*%
%ADD10O,1.700000X1.700000*%
%TD*%
%TA.AperFunction,ComponentPad*%
%ADD11C,1.700000*%
%TD*%
%TA.AperFunction,ComponentPad*%
%ADD12R,1.700000X1.700000*%
%TD*%
%TA.AperFunction,Conductor*%
%ADD13C,0.500000*%
%TD*%
%TA.AperFunction,Conductor*%
%ADD14C,0.200000*%
%TD*%
%TA.AperFunction,Conductor*%
%ADD15C,0.100000*%
%TD*%
G04 APERTURE END LIST*
%TO.P,R4,2*%
%TO.N,GND*%
%TA.AperFunction,SMDPad,CuDef*%
G36*
G01*
X156400000Y-137450001D02*
X156400000Y-136549999D01*
G75*
G02*
X156649999Y-136300000I249999J0D01*
G01*
X157350001Y-136300000D01*
G75*
G02*
X157600000Y-136549999I0J-249999D01*
G01*
X157600000Y-137450001D01*
G75*
G02*
X157350001Y-137700000I-249999J0D01*
G01*
X156649999Y-137700000D01*
G75*
G02*
X156400000Y-137450001I0J249999D01*
G01*
G37*
%TD.AperFunction*%
%TO.P,R4,1*%
%TO.N,/LED-*%
%TA.AperFunction,SMDPad,CuDef*%
G36*
G01*
X154400000Y-137450001D02*
X154400000Y-136549999D01*
G75*
G02*
X154649999Y-136300000I249999J0D01*
G01*
X155350001Y-136300000D01*
G75*
G02*
X155600000Y-136549999I0J-249999D01*
G01*
X155600000Y-137450001D01*
G75*
G02*
X155350001Y-137700000I-249999J0D01*
G01*
X154649999Y-137700000D01*
G75*
G02*
X154400000Y-137450001I0J249999D01*
G01*
G37*
%TD.AperFunction*%
%TD*%
%TO.P,R3,2*%
%TO.N,/INT*%
%TA.AperFunction,SMDPad,CuDef*%
G36*
G01*
X156400000Y-131450001D02*
X156400000Y-130549999D01*
G75*
G02*
X156649999Y-130300000I249999J0D01*
G01*
X157350001Y-130300000D01*
G75*
G02*
X157600000Y-130549999I0J-249999D01*
G01*
X157600000Y-131450001D01*
G75*
G02*
X157350001Y-131700000I-249999J0D01*
G01*
X156649999Y-131700000D01*
G75*
G02*
X156400000Y-131450001I0J249999D01*
G01*
G37*
%TD.AperFunction*%
%TO.P,R3,1*%
%TO.N,VCC*%
%TA.AperFunction,SMDPad,CuDef*%
G36*
G01*
X154400000Y-131450001D02*
X154400000Y-130549999D01*
G75*
G02*
X154649999Y-130300000I249999J0D01*
G01*
X155350001Y-130300000D01*
G75*
G02*
X155600000Y-130549999I0J-249999D01*
G01*
X155600000Y-131450001D01*
G75*
G02*
X155350001Y-131700000I-249999J0D01*
G01*
X154649999Y-131700000D01*
G75*
G02*
X154400000Y-131450001I0J249999D01*
G01*
G37*
%TD.AperFunction*%
%TD*%
%TO.P,R2,2*%
%TO.N,/SDAT*%
%TA.AperFunction,SMDPad,CuDef*%
G36*
G01*
X156400000Y-129450001D02*
X156400000Y-128549999D01*
G75*
G02*
X156649999Y-128300000I249999J0D01*
G01*
X157350001Y-128300000D01*
G75*
G02*
X157600000Y-128549999I0J-249999D01*
G01*
X157600000Y-129450001D01*
G75*
G02*
X157350001Y-129700000I-249999J0D01*
G01*
X156649999Y-129700000D01*
G75*
G02*
X156400000Y-129450001I0J249999D01*
G01*
G37*
%TD.AperFunction*%
%TO.P,R2,1*%
%TO.N,VCC*%
%TA.AperFunction,SMDPad,CuDef*%
G36*
G01*
X154400000Y-129450001D02*
X154400000Y-128549999D01*
G75*
G02*
X154649999Y-128300000I249999J0D01*
G01*
X155350001Y-128300000D01*
G75*
G02*
X155600000Y-128549999I0J-249999D01*
G01*
X155600000Y-129450001D01*
G75*
G02*
X155350001Y-129700000I-249999J0D01*
G01*
X154649999Y-129700000D01*
G75*
G02*
X154400000Y-129450001I0J249999D01*
G01*
G37*
%TD.AperFunction*%
%TD*%
%TO.P,R1,2*%
%TO.N,/SCLK*%
%TA.AperFunction,SMDPad,CuDef*%
G36*
G01*
X156400000Y-127450001D02*
X156400000Y-126549999D01*
G75*
G02*
X156649999Y-126300000I249999J0D01*
G01*
X157350001Y-126300000D01*
G75*
G02*
X157600000Y-126549999I0J-249999D01*
G01*
X157600000Y-127450001D01*
G75*
G02*
X157350001Y-127700000I-249999J0D01*
G01*
X156649999Y-127700000D01*
G75*
G02*
X156400000Y-127450001I0J249999D01*
G01*
G37*
%TD.AperFunction*%
%TO.P,R1,1*%
%TO.N,VCC*%
%TA.AperFunction,SMDPad,CuDef*%
G36*
G01*
X154400000Y-127450001D02*
X154400000Y-126549999D01*
G75*
G02*
X154649999Y-126300000I249999J0D01*
G01*
X155350001Y-126300000D01*
G75*
G02*
X155600000Y-126549999I0J-249999D01*
G01*
X155600000Y-127450001D01*
G75*
G02*
X155350001Y-127700000I-249999J0D01*
G01*
X154649999Y-127700000D01*
G75*
G02*
X154400000Y-127450001I0J249999D01*
G01*
G37*
%TD.AperFunction*%
%TD*%
D10*
%TO.P,J2,4*%
%TO.N,/LED+*%
X161290000Y-135890000D03*
%TO.P,J2,3*%
%TO.N,/INT*%
X161290000Y-133350000D03*
%TO.P,J2,2*%
%TO.N,/SDAT*%
X161290000Y-130810000D03*
D11*
%TO.P,J2,1*%
%TO.N,/SCLK*%
X161290000Y-128270000D03*
%TD*%
D10*
%TO.P,J1,4*%
%TO.N,/LED-*%
X151130000Y-135890000D03*
%TO.P,J1,3*%
%TO.N,VCC*%
X151130000Y-133350000D03*
%TO.P,J1,2*%
%TO.N,/LED_CATHODE*%
X151130000Y-130810000D03*
D12*
%TO.P,J1,1*%
%TO.N,GND*%
X151130000Y-128270000D03*
%TD*%
%TO.P,C2,2*%
%TO.N,GND*%
%TA.AperFunction,SMDPad,CuDef*%
G36*
G01*
X156450000Y-133475000D02*
X156450000Y-132525000D01*
G75*
G02*
X156700000Y-132275000I250000J0D01*
G01*
X157375000Y-132275000D01*
G75*
G02*
X157625000Y-132525000I0J-250000D01*
G01*
X157625000Y-133475000D01*
G75*
G02*
X157375000Y-133725000I-250000J0D01*
G01*
X156700000Y-133725000D01*
G75*
G02*
X156450000Y-133475000I0J250000D01*
G01*
G37*
%TD.AperFunction*%
%TO.P,C2,1*%
%TO.N,VCC*%
%TA.AperFunction,SMDPad,CuDef*%
G36*
G01*
X154375000Y-133475000D02*
X154375000Y-132525000D01*
G75*
G02*
X154625000Y-132275000I250000J0D01*
G01*
X155300000Y-132275000D01*
G75*
G02*
X155550000Y-132525000I0J-250000D01*
G01*
X155550000Y-133475000D01*
G75*
G02*
X155300000Y-133725000I-250000J0D01*
G01*
X154625000Y-133725000D01*
G75*
G02*
X154375000Y-133475000I0J250000D01*
G01*
G37*
%TD.AperFunction*%
%TD*%
%TO.P,C1,2*%
%TO.N,GND*%
%TA.AperFunction,SMDPad,CuDef*%
G36*
G01*
X156450000Y-135475000D02*
X156450000Y-134525000D01*
G75*
G02*
X156700000Y-134275000I250000J0D01*
G01*
X157375000Y-134275000D01*
G75*
G02*
X157625000Y-134525000I0J-250000D01*
G01*
X157625000Y-135475000D01*
G75*
G02*
X157375000Y-135725000I-250000J0D01*
G01*
X156700000Y-135725000D01*
G75*
G02*
X156450000Y-135475000I0J250000D01*
G01*
G37*
%TD.AperFunction*%
%TO.P,C1,1*%
%TO.N,VCC*%
%TA.AperFunction,SMDPad,CuDef*%
G36*
G01*
X154375000Y-135475000D02*
X154375000Y-134525000D01*
G75*
G02*
X154625000Y-134275000I250000J0D01*
G01*
X155300000Y-134275000D01*
G75*
G02*
X155550000Y-134525000I0J-250000D01*
G01*
X155550000Y-135475000D01*
G75*
G02*
X155300000Y-135725000I-250000J0D01*
G01*
X154625000Y-135725000D01*
G75*
G02*
X154375000Y-135475000I0J250000D01*
G01*
G37*
%TD.AperFunction*%
%TD*%
D13*
%TO.N,GND*%
X157037500Y-136962500D02*
X157000000Y-137000000D01*
X157037500Y-133000000D02*
X157037500Y-136962500D01*
%TO.N,VCC*%
X154962500Y-135000000D02*
X154962500Y-133000000D01*
X155000000Y-132962500D02*
X154962500Y-133000000D01*
X155000000Y-131000000D02*
X155000000Y-132962500D01*
X155000000Y-129000000D02*
X155000000Y-131000000D01*
X155000000Y-129000000D02*
X155000000Y-127000000D01*
X151130000Y-133350000D02*
X152350000Y-133350000D01*
X152350000Y-133350000D02*
X154000000Y-135000000D01*
X154000000Y-135000000D02*
X154962500Y-135000000D01*
%TO.N,/INT*%
X160350000Y-133350000D02*
X161290000Y-133350000D01*
X158000000Y-131000000D02*
X160350000Y-133350000D01*
X157000000Y-131000000D02*
X158000000Y-131000000D01*
%TO.N,/SDAT*%
X157000000Y-129000000D02*
X158000000Y-129000000D01*
X159810000Y-130810000D02*
X161290000Y-130810000D01*
X158000000Y-129000000D02*
X159810000Y-130810000D01*
%TO.N,/SCLK*%
X157000000Y-127000000D02*
X158200000Y-127000000D01*
X159470000Y-128270000D02*
X161290000Y-128270000D01*
X158200000Y-127000000D02*
X159470000Y-128270000D01*
%TO.N,/LED-*%
X151130000Y-135890000D02*
X152890000Y-135890000D01*
X152890000Y-135890000D02*
X154000000Y-137000000D01*
X155000000Y-137000000D02*
X154000000Y-137000000D01*
%TD*%
D14*
%TO.N,GND*%
X161727922Y-125848906D02*
X161947165Y-125915100D01*
X162149370Y-126022614D01*
X162326847Y-126167361D01*
X162472829Y-126343824D01*
X162581754Y-126545276D01*
X162649474Y-126764047D01*
X162675000Y-127006915D01*
X162675001Y-137484094D01*
X162660616Y-137630805D01*
X162622627Y-137756629D01*
X162560924Y-137872675D01*
X162477853Y-137974531D01*
X162376586Y-138058307D01*
X162260973Y-138120819D01*
X162135410Y-138159687D01*
X161989716Y-138175000D01*
X151015896Y-138175000D01*
X150772078Y-138151094D01*
X150552834Y-138084900D01*
X150350630Y-137977386D01*
X150173153Y-137832639D01*
X150027170Y-137656176D01*
X149918247Y-137454727D01*
X149850526Y-137235958D01*
X149825000Y-136993085D01*
X149825000Y-133236735D01*
X149980000Y-133236735D01*
X149980000Y-133463265D01*
X150024194Y-133685443D01*
X150110884Y-133894729D01*
X150236737Y-134083082D01*
X150396918Y-134243263D01*
X150585271Y-134369116D01*
X150794557Y-134455806D01*
X151016735Y-134500000D01*
X151243265Y-134500000D01*
X151465443Y-134455806D01*
X151674729Y-134369116D01*
X151863082Y-134243263D01*
X152023263Y-134083082D01*
X152136217Y-133914034D01*
X153591992Y-135369810D01*
X153609210Y-135390790D01*
X153630190Y-135408008D01*
X153630195Y-135408013D01*
X153682097Y-135450607D01*
X153692958Y-135459521D01*
X153788506Y-135510592D01*
X153892181Y-135542042D01*
X153972982Y-135550000D01*
X153972991Y-135550000D01*
X153999999Y-135552660D01*
X154027007Y-135550000D01*
X154080936Y-135550000D01*
X154084145Y-135582583D01*
X154115526Y-135686031D01*
X154166485Y-135781370D01*
X154235065Y-135864935D01*
X154318630Y-135933515D01*
X154413969Y-135984474D01*
X154517417Y-136015855D01*
X154519591Y-136016069D01*
X154438968Y-136040526D01*
X154343630Y-136091485D01*
X154260065Y-136160065D01*
X154191485Y-136243630D01*
X154140526Y-136338968D01*
X154135001Y-136357183D01*
X153298013Y-135520196D01*
X153280790Y-135499210D01*
X153197042Y-135430479D01*
X153101494Y-135379408D01*
X152997819Y-135347958D01*
X152917018Y-135340000D01*
X152917008Y-135340000D01*
X152890000Y-135337340D01*
X152862992Y-135340000D01*
X152145594Y-135340000D01*
X152023263Y-135156918D01*
X151863082Y-134996737D01*
X151674729Y-134870884D01*
X151465443Y-134784194D01*
X151243265Y-134740000D01*
X151016735Y-134740000D01*
X150794557Y-134784194D01*
X150585271Y-134870884D01*
X150396918Y-134996737D01*
X150236737Y-135156918D01*
X150110884Y-135345271D01*
X150024194Y-135554557D01*
X149980000Y-135776735D01*
X149980000Y-136003265D01*
X150024194Y-136225443D01*
X150110884Y-136434729D01*
X150236737Y-136623082D01*
X150396918Y-136783263D01*
X150585271Y-136909116D01*
X150794557Y-136995806D01*
X151016735Y-137040000D01*
X151243265Y-137040000D01*
X151465443Y-136995806D01*
X151674729Y-136909116D01*
X151863082Y-136783263D01*
X152023263Y-136623082D01*
X152145594Y-136440000D01*
X152662183Y-136440000D01*
X153591992Y-137369810D01*
X153609210Y-137390790D01*
X153630190Y-137408008D01*
X153630195Y-137408013D01*
X153692957Y-137459521D01*
X153709356Y-137468286D01*
X153788506Y-137510592D01*
X153892181Y-137542042D01*
X153972982Y-137550000D01*
X153972991Y-137550000D01*
X153999999Y-137552660D01*
X154027007Y-137550000D01*
X154108398Y-137550000D01*
X154109145Y-137557584D01*
X154140526Y-137661032D01*
X154191485Y-137756370D01*
X154260065Y-137839935D01*
X154343630Y-137908515D01*
X154438968Y-137959474D01*
X154542416Y-137990855D01*
X154649999Y-138001451D01*
X155350001Y-138001451D01*
X155457584Y-137990855D01*
X155561032Y-137959474D01*
X155656370Y-137908515D01*
X155739935Y-137839935D01*
X155808515Y-137756370D01*
X155838645Y-137700000D01*
X155998065Y-137700000D01*
X156005788Y-137778414D01*
X156028660Y-137853814D01*
X156065803Y-137923303D01*
X156115789Y-137984211D01*
X156176697Y-138034197D01*
X156246186Y-138071340D01*
X156321586Y-138094212D01*
X156400000Y-138101935D01*
X156850000Y-138100000D01*
X156950000Y-138000000D01*
X156950000Y-137050000D01*
X157050000Y-137050000D01*
X157050000Y-138000000D01*
X157150000Y-138100000D01*
X157600000Y-138101935D01*
X157678414Y-138094212D01*
X157753814Y-138071340D01*
X157823303Y-138034197D01*
X157884211Y-137984211D01*
X157934197Y-137923303D01*
X157971340Y-137853814D01*
X157994212Y-137778414D01*
X158001935Y-137700000D01*
X158000000Y-137150000D01*
X157900000Y-137050000D01*
X157050000Y-137050000D01*
X156950000Y-137050000D01*
X156100000Y-137050000D01*
X156000000Y-137150000D01*
X155998065Y-137700000D01*
X155838645Y-137700000D01*
X155859474Y-137661032D01*
X155890855Y-137557584D01*
X155901451Y-137450001D01*
X155901451Y-136549999D01*
X155890855Y-136442416D01*
X155859474Y-136338968D01*
X155838646Y-136300000D01*
X155998065Y-136300000D01*
X156000000Y-136850000D01*
X156100000Y-136950000D01*
X156950000Y-136950000D01*
X156950000Y-136062500D01*
X156987500Y-136025000D01*
X156987500Y-136000000D01*
X157050000Y-136000000D01*
X157050000Y-136950000D01*
X157900000Y-136950000D01*
X158000000Y-136850000D01*
X158001935Y-136300000D01*
X157994212Y-136221586D01*
X157971340Y-136146186D01*
X157934197Y-136076697D01*
X157891047Y-136024118D01*
X157909211Y-136009211D01*
X157959197Y-135948303D01*
X157996340Y-135878814D01*
X158019212Y-135803414D01*
X158021839Y-135776735D01*
X160140000Y-135776735D01*
X160140000Y-136003265D01*
X160184194Y-136225443D01*
X160270884Y-136434729D01*
X160396737Y-136623082D01*
X160556918Y-136783263D01*
X160745271Y-136909116D01*
X160954557Y-136995806D01*
X161176735Y-137040000D01*
X161403265Y-137040000D01*
X161625443Y-136995806D01*
X161834729Y-136909116D01*
X162023082Y-136783263D01*
X162183263Y-136623082D01*
X162309116Y-136434729D01*
X162395806Y-136225443D01*
X162440000Y-136003265D01*
X162440000Y-135776735D01*
X162395806Y-135554557D01*
X162309116Y-135345271D01*
X162183263Y-135156918D01*
X162023082Y-134996737D01*
X161834729Y-134870884D01*
X161625443Y-134784194D01*
X161403265Y-134740000D01*
X161176735Y-134740000D01*
X160954557Y-134784194D01*
X160745271Y-134870884D01*
X160556918Y-134996737D01*
X160396737Y-135156918D01*
X160270884Y-135345271D01*
X160184194Y-135554557D01*
X160140000Y-135776735D01*
X158021839Y-135776735D01*
X158026935Y-135725000D01*
X158025000Y-135150000D01*
X157925000Y-135050000D01*
X157087500Y-135050000D01*
X157087500Y-135962500D01*
X157050000Y-136000000D01*
X156987500Y-136000000D01*
X156987500Y-135050000D01*
X156150000Y-135050000D01*
X156050000Y-135150000D01*
X156048065Y-135725000D01*
X156055788Y-135803414D01*
X156078660Y-135878814D01*
X156115803Y-135948303D01*
X156148892Y-135988622D01*
X156115789Y-136015789D01*
X156065803Y-136076697D01*
X156028660Y-136146186D01*
X156005788Y-136221586D01*
X155998065Y-136300000D01*
X155838646Y-136300000D01*
X155808515Y-136243630D01*
X155739935Y-136160065D01*
X155656370Y-136091485D01*
X155561032Y-136040526D01*
X155457584Y-136009145D01*
X155436536Y-136007072D01*
X155511031Y-135984474D01*
X155606370Y-135933515D01*
X155689935Y-135864935D01*
X155758515Y-135781370D01*
X155809474Y-135686031D01*
X155840855Y-135582583D01*
X155851451Y-135475000D01*
X155851451Y-134525000D01*
X155840855Y-134417417D01*
X155809474Y-134313969D01*
X155758515Y-134218630D01*
X155689935Y-134135065D01*
X155606370Y-134066485D01*
X155512500Y-134016311D01*
X155512500Y-133983689D01*
X155606370Y-133933515D01*
X155689935Y-133864935D01*
X155758515Y-133781370D01*
X155788644Y-133725000D01*
X156048065Y-133725000D01*
X156055788Y-133803414D01*
X156078660Y-133878814D01*
X156115803Y-133948303D01*
X156158230Y-134000000D01*
X156115803Y-134051697D01*
X156078660Y-134121186D01*
X156055788Y-134196586D01*
X156048065Y-134275000D01*
X156050000Y-134850000D01*
X156150000Y-134950000D01*
X156987500Y-134950000D01*
X156987500Y-133050000D01*
X157087500Y-133050000D01*
X157087500Y-134950000D01*
X157925000Y-134950000D01*
X158025000Y-134850000D01*
X158026935Y-134275000D01*
X158019212Y-134196586D01*
X157996340Y-134121186D01*
X157959197Y-134051697D01*
X157916770Y-134000000D01*
X157959197Y-133948303D01*
X157996340Y-133878814D01*
X158019212Y-133803414D01*
X158026935Y-133725000D01*
X158025000Y-133150000D01*
X157925000Y-133050000D01*
X157087500Y-133050000D01*
X156987500Y-133050000D01*
X156150000Y-133050000D01*
X156050000Y-133150000D01*
X156048065Y-133725000D01*
X155788644Y-133725000D01*
X155809474Y-133686031D01*
X155840855Y-133582583D01*
X155851451Y-133475000D01*
X155851451Y-132525000D01*
X155840855Y-132417417D01*
X155809474Y-132313969D01*
X155788645Y-132275000D01*
X156048065Y-132275000D01*
X156050000Y-132850000D01*
X156150000Y-132950000D01*
X156987500Y-132950000D01*
X156987500Y-132930000D01*
X157087500Y-132930000D01*
X157087500Y-132950000D01*
X157925000Y-132950000D01*
X158025000Y-132850000D01*
X158026935Y-132275000D01*
X158019212Y-132196586D01*
X157996340Y-132121186D01*
X157959197Y-132051697D01*
X157909211Y-131990789D01*
X157848303Y-131940803D01*
X157778814Y-131903660D01*
X157703414Y-131880788D01*
X157691576Y-131879622D01*
X157739935Y-131839935D01*
X157808515Y-131756370D01*
X157859474Y-131661032D01*
X157865000Y-131642817D01*
X159941992Y-133719810D01*
X159959210Y-133740790D01*
X159980190Y-133758008D01*
X159980195Y-133758013D01*
X160008656Y-133781370D01*
X160042958Y-133809521D01*
X160138506Y-133860592D01*
X160242181Y-133892042D01*
X160270984Y-133894879D01*
X160396737Y-134083082D01*
X160556918Y-134243263D01*
X160745271Y-134369116D01*
X160954557Y-134455806D01*
X161176735Y-134500000D01*
X161403265Y-134500000D01*
X161625443Y-134455806D01*
X161834729Y-134369116D01*
X162023082Y-134243263D01*
X162183263Y-134083082D01*
X162309116Y-133894729D01*
X162395806Y-133685443D01*
X162440000Y-133463265D01*
X162440000Y-133236735D01*
X162395806Y-133014557D01*
X162309116Y-132805271D01*
X162183263Y-132616918D01*
X162023082Y-132456737D01*
X161834729Y-132330884D01*
X161625443Y-132244194D01*
X161403265Y-132200000D01*
X161176735Y-132200000D01*
X160954557Y-132244194D01*
X160745271Y-132330884D01*
X160556918Y-132456737D01*
X160396737Y-132616918D01*
X160395935Y-132618118D01*
X158408013Y-130630196D01*
X158390790Y-130609210D01*
X158307042Y-130540479D01*
X158211494Y-130489408D01*
X158107819Y-130457958D01*
X158027018Y-130450000D01*
X158027008Y-130450000D01*
X158000000Y-130447340D01*
X157972992Y-130450000D01*
X157891602Y-130450000D01*
X157890855Y-130442416D01*
X157859474Y-130338968D01*
X157808515Y-130243630D01*
X157739935Y-130160065D01*
X157656370Y-130091485D01*
X157561032Y-130040526D01*
X157457584Y-130009145D01*
X157364733Y-130000000D01*
X157457584Y-129990855D01*
X157561032Y-129959474D01*
X157656370Y-129908515D01*
X157739935Y-129839935D01*
X157808515Y-129756370D01*
X157859474Y-129661032D01*
X157865000Y-129642817D01*
X159401987Y-131179804D01*
X159419210Y-131200790D01*
X159502958Y-131269521D01*
X159598506Y-131320592D01*
X159702181Y-131352042D01*
X159782982Y-131360000D01*
X159782989Y-131360000D01*
X159810000Y-131362660D01*
X159837011Y-131360000D01*
X160274406Y-131360000D01*
X160396737Y-131543082D01*
X160556918Y-131703263D01*
X160745271Y-131829116D01*
X160954557Y-131915806D01*
X161176735Y-131960000D01*
X161403265Y-131960000D01*
X161625443Y-131915806D01*
X161834729Y-131829116D01*
X162023082Y-131703263D01*
X162183263Y-131543082D01*
X162309116Y-131354729D01*
X162395806Y-131145443D01*
X162440000Y-130923265D01*
X162440000Y-130696735D01*
X162395806Y-130474557D01*
X162309116Y-130265271D01*
X162183263Y-130076918D01*
X162023082Y-129916737D01*
X161834729Y-129790884D01*
X161625443Y-129704194D01*
X161403265Y-129660000D01*
X161176735Y-129660000D01*
X160954557Y-129704194D01*
X160745271Y-129790884D01*
X160556918Y-129916737D01*
X160396737Y-130076918D01*
X160274406Y-130260000D01*
X160037817Y-130260000D01*
X158408013Y-128630196D01*
X158390790Y-128609210D01*
X158307042Y-128540479D01*
X158211494Y-128489408D01*
X158107819Y-128457958D01*
X158027018Y-128450000D01*
X158027008Y-128450000D01*
X158000000Y-128447340D01*
X157972992Y-128450000D01*
X157891602Y-128450000D01*
X157890855Y-128442416D01*
X157859474Y-128338968D01*
X157808515Y-128243630D01*
X157739935Y-128160065D01*
X157656370Y-128091485D01*
X157561032Y-128040526D01*
X157457584Y-128009145D01*
X157364733Y-128000000D01*
X157457584Y-127990855D01*
X157561032Y-127959474D01*
X157656370Y-127908515D01*
X157739935Y-127839935D01*
X157808515Y-127756370D01*
X157859474Y-127661032D01*
X157890855Y-127557584D01*
X157891602Y-127550000D01*
X157972183Y-127550000D01*
X159061992Y-128639810D01*
X159079210Y-128660790D01*
X159100190Y-128678008D01*
X159100195Y-128678013D01*
X159118406Y-128692958D01*
X159162958Y-128729521D01*
X159258506Y-128780592D01*
X159362181Y-128812042D01*
X159442982Y-128820000D01*
X159442991Y-128820000D01*
X159469999Y-128822660D01*
X159497007Y-128820000D01*
X160274406Y-128820000D01*
X160396737Y-129003082D01*
X160556918Y-129163263D01*
X160745271Y-129289116D01*
X160954557Y-129375806D01*
X161176735Y-129420000D01*
X161403265Y-129420000D01*
X161625443Y-129375806D01*
X161834729Y-129289116D01*
X162023082Y-129163263D01*
X162183263Y-129003082D01*
X162309116Y-128814729D01*
X162395806Y-128605443D01*
X162440000Y-128383265D01*
X162440000Y-128156735D01*
X162395806Y-127934557D01*
X162309116Y-127725271D01*
X162183263Y-127536918D01*
X162023082Y-127376737D01*
X161834729Y-127250884D01*
X161625443Y-127164194D01*
X161403265Y-127120000D01*
X161176735Y-127120000D01*
X160954557Y-127164194D01*
X160745271Y-127250884D01*
X160556918Y-127376737D01*
X160396737Y-127536918D01*
X160274406Y-127720000D01*
X159697818Y-127720000D01*
X158608013Y-126630196D01*
X158590790Y-126609210D01*
X158507042Y-126540479D01*
X158411494Y-126489408D01*
X158307819Y-126457958D01*
X158227018Y-126450000D01*
X158227008Y-126450000D01*
X158200000Y-126447340D01*
X158172992Y-126450000D01*
X157891602Y-126450000D01*
X157890855Y-126442416D01*
X157859474Y-126338968D01*
X157808515Y-126243630D01*
X157739935Y-126160065D01*
X157656370Y-126091485D01*
X157561032Y-126040526D01*
X157457584Y-126009145D01*
X157350001Y-125998549D01*
X156649999Y-125998549D01*
X156542416Y-126009145D01*
X156438968Y-126040526D01*
X156343630Y-126091485D01*
X156260065Y-126160065D01*
X156191485Y-126243630D01*
X156140526Y-126338968D01*
X156109145Y-126442416D01*
X156098549Y-126549999D01*
X156098549Y-127450001D01*
X156109145Y-127557584D01*
X156140526Y-127661032D01*
X156191485Y-127756370D01*
X156260065Y-127839935D01*
X156343630Y-127908515D01*
X156438968Y-127959474D01*
X156542416Y-127990855D01*
X156635267Y-128000000D01*
X156542416Y-128009145D01*
X156438968Y-128040526D01*
X156343630Y-128091485D01*
X156260065Y-128160065D01*
X156191485Y-128243630D01*
X156140526Y-128338968D01*
X156109145Y-128442416D01*
X156098549Y-128549999D01*
X156098549Y-129450001D01*
X156109145Y-129557584D01*
X156140526Y-129661032D01*
X156191485Y-129756370D01*
X156260065Y-129839935D01*
X156343630Y-129908515D01*
X156438968Y-129959474D01*
X156542416Y-129990855D01*
X156635267Y-130000000D01*
X156542416Y-130009145D01*
X156438968Y-130040526D01*
X156343630Y-130091485D01*
X156260065Y-130160065D01*
X156191485Y-130243630D01*
X156140526Y-130338968D01*
X156109145Y-130442416D01*
X156098549Y-130549999D01*
X156098549Y-131450001D01*
X156109145Y-131557584D01*
X156140526Y-131661032D01*
X156191485Y-131756370D01*
X156260065Y-131839935D01*
X156326507Y-131894462D01*
X156296186Y-131903660D01*
X156226697Y-131940803D01*
X156165789Y-131990789D01*
X156115803Y-132051697D01*
X156078660Y-132121186D01*
X156055788Y-132196586D01*
X156048065Y-132275000D01*
X155788645Y-132275000D01*
X155758515Y-132218630D01*
X155689935Y-132135065D01*
X155606370Y-132066485D01*
X155550000Y-132036355D01*
X155550000Y-131962821D01*
X155561032Y-131959474D01*
X155656370Y-131908515D01*
X155739935Y-131839935D01*
X155808515Y-131756370D01*
X155859474Y-131661032D01*
X155890855Y-131557584D01*
X155901451Y-131450001D01*
X155901451Y-130549999D01*
X155890855Y-130442416D01*
X155859474Y-130338968D01*
X155808515Y-130243630D01*
X155739935Y-130160065D01*
X155656370Y-130091485D01*
X155561032Y-130040526D01*
X155550000Y-130037179D01*
X155550000Y-129962821D01*
X155561032Y-129959474D01*
X155656370Y-129908515D01*
X155739935Y-129839935D01*
X155808515Y-129756370D01*
X155859474Y-129661032D01*
X155890855Y-129557584D01*
X155901451Y-129450001D01*
X155901451Y-128549999D01*
X155890855Y-128442416D01*
X155859474Y-128338968D01*
X155808515Y-128243630D01*
X155739935Y-128160065D01*
X155656370Y-128091485D01*
X155561032Y-128040526D01*
X155550000Y-128037179D01*
X155550000Y-127962821D01*
X155561032Y-127959474D01*
X155656370Y-127908515D01*
X155739935Y-127839935D01*
X155808515Y-127756370D01*
X155859474Y-127661032D01*
X155890855Y-127557584D01*
X155901451Y-127450001D01*
X155901451Y-126549999D01*
X155890855Y-126442416D01*
X155859474Y-126338968D01*
X155808515Y-126243630D01*
X155739935Y-126160065D01*
X155656370Y-126091485D01*
X155561032Y-126040526D01*
X155457584Y-126009145D01*
X155350001Y-125998549D01*
X154649999Y-125998549D01*
X154542416Y-126009145D01*
X154438968Y-126040526D01*
X154343630Y-126091485D01*
X154260065Y-126160065D01*
X154191485Y-126243630D01*
X154140526Y-126338968D01*
X154109145Y-126442416D01*
X154098549Y-126549999D01*
X154098549Y-127450001D01*
X154109145Y-127557584D01*
X154140526Y-127661032D01*
X154191485Y-127756370D01*
X154260065Y-127839935D01*
X154343630Y-127908515D01*
X154438968Y-127959474D01*
X154450001Y-127962821D01*
X154450000Y-128037179D01*
X154438968Y-128040526D01*
X154343630Y-128091485D01*
X154260065Y-128160065D01*
X154191485Y-128243630D01*
X154140526Y-128338968D01*
X154109145Y-128442416D01*
X154098549Y-128549999D01*
X154098549Y-129450001D01*
X154109145Y-129557584D01*
X154140526Y-129661032D01*
X154191485Y-129756370D01*
X154260065Y-129839935D01*
X154343630Y-129908515D01*
X154438968Y-129959474D01*
X154450000Y-129962821D01*
X154450001Y-130037179D01*
X154438968Y-130040526D01*
X154343630Y-130091485D01*
X154260065Y-130160065D01*
X154191485Y-130243630D01*
X154140526Y-130338968D01*
X154109145Y-130442416D01*
X154098549Y-130549999D01*
X154098549Y-131450001D01*
X154109145Y-131557584D01*
X154140526Y-131661032D01*
X154191485Y-131756370D01*
X154260065Y-131839935D01*
X154343630Y-131908515D01*
X154438968Y-131959474D01*
X154450000Y-131962821D01*
X154450001Y-132004596D01*
X154413969Y-132015526D01*
X154318630Y-132066485D01*
X154235065Y-132135065D01*
X154166485Y-132218630D01*
X154115526Y-132313969D01*
X154084145Y-132417417D01*
X154073549Y-132525000D01*
X154073549Y-133475000D01*
X154084145Y-133582583D01*
X154115526Y-133686031D01*
X154166485Y-133781370D01*
X154235065Y-133864935D01*
X154318630Y-133933515D01*
X154412501Y-133983689D01*
X154412500Y-134016311D01*
X154318630Y-134066485D01*
X154235065Y-134135065D01*
X154166485Y-134218630D01*
X154115526Y-134313969D01*
X154110001Y-134332183D01*
X152758012Y-132980195D01*
X152740790Y-132959210D01*
X152657042Y-132890479D01*
X152561494Y-132839408D01*
X152457819Y-132807958D01*
X152377018Y-132800000D01*
X152377008Y-132800000D01*
X152350000Y-132797340D01*
X152322992Y-132800000D01*
X152145594Y-132800000D01*
X152023263Y-132616918D01*
X151863082Y-132456737D01*
X151674729Y-132330884D01*
X151465443Y-132244194D01*
X151243265Y-132200000D01*
X151016735Y-132200000D01*
X150794557Y-132244194D01*
X150585271Y-132330884D01*
X150396918Y-132456737D01*
X150236737Y-132616918D01*
X150110884Y-132805271D01*
X150024194Y-133014557D01*
X149980000Y-133236735D01*
X149825000Y-133236735D01*
X149825000Y-130696735D01*
X149980000Y-130696735D01*
X149980000Y-130923265D01*
X150024194Y-131145443D01*
X150110884Y-131354729D01*
X150236737Y-131543082D01*
X150396918Y-131703263D01*
X150585271Y-131829116D01*
X150794557Y-131915806D01*
X151016735Y-131960000D01*
X151243265Y-131960000D01*
X151465443Y-131915806D01*
X151674729Y-131829116D01*
X151863082Y-131703263D01*
X152023263Y-131543082D01*
X152149116Y-131354729D01*
X152235806Y-131145443D01*
X152280000Y-130923265D01*
X152280000Y-130696735D01*
X152235806Y-130474557D01*
X152149116Y-130265271D01*
X152023263Y-130076918D01*
X151863082Y-129916737D01*
X151674729Y-129790884D01*
X151465443Y-129704194D01*
X151243265Y-129660000D01*
X151016735Y-129660000D01*
X150794557Y-129704194D01*
X150585271Y-129790884D01*
X150396918Y-129916737D01*
X150236737Y-130076918D01*
X150110884Y-130265271D01*
X150024194Y-130474557D01*
X149980000Y-130696735D01*
X149825000Y-130696735D01*
X149825000Y-129120000D01*
X149878065Y-129120000D01*
X149885788Y-129198414D01*
X149908660Y-129273814D01*
X149945803Y-129343303D01*
X149995789Y-129404211D01*
X150056697Y-129454197D01*
X150126186Y-129491340D01*
X150201586Y-129514212D01*
X150280000Y-129521935D01*
X150980000Y-129520000D01*
X151080000Y-129420000D01*
X151080000Y-128320000D01*
X151180000Y-128320000D01*
X151180000Y-129420000D01*
X151280000Y-129520000D01*
X151980000Y-129521935D01*
X152058414Y-129514212D01*
X152133814Y-129491340D01*
X152203303Y-129454197D01*
X152264211Y-129404211D01*
X152314197Y-129343303D01*
X152351340Y-129273814D01*
X152374212Y-129198414D01*
X152381935Y-129120000D01*
X152380000Y-128420000D01*
X152280000Y-128320000D01*
X151180000Y-128320000D01*
X151080000Y-128320000D01*
X149980000Y-128320000D01*
X149880000Y-128420000D01*
X149878065Y-129120000D01*
X149825000Y-129120000D01*
X149825000Y-127420000D01*
X149878065Y-127420000D01*
X149880000Y-128120000D01*
X149980000Y-128220000D01*
X151080000Y-128220000D01*
X151080000Y-127120000D01*
X151180000Y-127120000D01*
X151180000Y-128220000D01*
X152280000Y-128220000D01*
X152380000Y-128120000D01*
X152381935Y-127420000D01*
X152374212Y-127341586D01*
X152351340Y-127266186D01*
X152314197Y-127196697D01*
X152264211Y-127135789D01*
X152203303Y-127085803D01*
X152133814Y-127048660D01*
X152058414Y-127025788D01*
X151980000Y-127018065D01*
X151280000Y-127020000D01*
X151180000Y-127120000D01*
X151080000Y-127120000D01*
X150980000Y-127020000D01*
X150280000Y-127018065D01*
X150201586Y-127025788D01*
X150126186Y-127048660D01*
X150056697Y-127085803D01*
X149995789Y-127135789D01*
X149945803Y-127196697D01*
X149908660Y-127266186D01*
X149885788Y-127341586D01*
X149878065Y-127420000D01*
X149825000Y-127420000D01*
X149825000Y-127015896D01*
X149848906Y-126772078D01*
X149915100Y-126552835D01*
X150022614Y-126350630D01*
X150167361Y-126173153D01*
X150343824Y-126027171D01*
X150545276Y-125918246D01*
X150764047Y-125850526D01*
X151006915Y-125825000D01*
X161484104Y-125825000D01*
X161727922Y-125848906D01*
%TA.AperFunction,Conductor*%
D15*
G36*
X161727922Y-125848906D02*
G01*
X161947165Y-125915100D01*
X162149370Y-126022614D01*
X162326847Y-126167361D01*
X162472829Y-126343824D01*
X162581754Y-126545276D01*
X162649474Y-126764047D01*
X162675000Y-127006915D01*
X162675001Y-137484094D01*
X162660616Y-137630805D01*
X162622627Y-137756629D01*
X162560924Y-137872675D01*
X162477853Y-137974531D01*
X162376586Y-138058307D01*
X162260973Y-138120819D01*
X162135410Y-138159687D01*
X161989716Y-138175000D01*
X151015896Y-138175000D01*
X150772078Y-138151094D01*
X150552834Y-138084900D01*
X150350630Y-137977386D01*
X150173153Y-137832639D01*
X150027170Y-137656176D01*
X149918247Y-137454727D01*
X149850526Y-137235958D01*
X149825000Y-136993085D01*
X149825000Y-133236735D01*
X149980000Y-133236735D01*
X149980000Y-133463265D01*
X150024194Y-133685443D01*
X150110884Y-133894729D01*
X150236737Y-134083082D01*
X150396918Y-134243263D01*
X150585271Y-134369116D01*
X150794557Y-134455806D01*
X151016735Y-134500000D01*
X151243265Y-134500000D01*
X151465443Y-134455806D01*
X151674729Y-134369116D01*
X151863082Y-134243263D01*
X152023263Y-134083082D01*
X152136217Y-133914034D01*
X153591992Y-135369810D01*
X153609210Y-135390790D01*
X153630190Y-135408008D01*
X153630195Y-135408013D01*
X153682097Y-135450607D01*
X153692958Y-135459521D01*
X153788506Y-135510592D01*
X153892181Y-135542042D01*
X153972982Y-135550000D01*
X153972991Y-135550000D01*
X153999999Y-135552660D01*
X154027007Y-135550000D01*
X154080936Y-135550000D01*
X154084145Y-135582583D01*
X154115526Y-135686031D01*
X154166485Y-135781370D01*
X154235065Y-135864935D01*
X154318630Y-135933515D01*
X154413969Y-135984474D01*
X154517417Y-136015855D01*
X154519591Y-136016069D01*
X154438968Y-136040526D01*
X154343630Y-136091485D01*
X154260065Y-136160065D01*
X154191485Y-136243630D01*
X154140526Y-136338968D01*
X154135001Y-136357183D01*
X153298013Y-135520196D01*
X153280790Y-135499210D01*
X153197042Y-135430479D01*
X153101494Y-135379408D01*
X152997819Y-135347958D01*
X152917018Y-135340000D01*
X152917008Y-135340000D01*
X152890000Y-135337340D01*
X152862992Y-135340000D01*
X152145594Y-135340000D01*
X152023263Y-135156918D01*
X151863082Y-134996737D01*
X151674729Y-134870884D01*
X151465443Y-134784194D01*
X151243265Y-134740000D01*
X151016735Y-134740000D01*
X150794557Y-134784194D01*
X150585271Y-134870884D01*
X150396918Y-134996737D01*
X150236737Y-135156918D01*
X150110884Y-135345271D01*
X150024194Y-135554557D01*
X149980000Y-135776735D01*
X149980000Y-136003265D01*
X150024194Y-136225443D01*
X150110884Y-136434729D01*
X150236737Y-136623082D01*
X150396918Y-136783263D01*
X150585271Y-136909116D01*
X150794557Y-136995806D01*
X151016735Y-137040000D01*
X151243265Y-137040000D01*
X151465443Y-136995806D01*
X151674729Y-136909116D01*
X151863082Y-136783263D01*
X152023263Y-136623082D01*
X152145594Y-136440000D01*
X152662183Y-136440000D01*
X153591992Y-137369810D01*
X153609210Y-137390790D01*
X153630190Y-137408008D01*
X153630195Y-137408013D01*
X153692957Y-137459521D01*
X153709356Y-137468286D01*
X153788506Y-137510592D01*
X153892181Y-137542042D01*
X153972982Y-137550000D01*
X153972991Y-137550000D01*
X153999999Y-137552660D01*
X154027007Y-137550000D01*
X154108398Y-137550000D01*
X154109145Y-137557584D01*
X154140526Y-137661032D01*
X154191485Y-137756370D01*
X154260065Y-137839935D01*
X154343630Y-137908515D01*
X154438968Y-137959474D01*
X154542416Y-137990855D01*
X154649999Y-138001451D01*
X155350001Y-138001451D01*
X155457584Y-137990855D01*
X155561032Y-137959474D01*
X155656370Y-137908515D01*
X155739935Y-137839935D01*
X155808515Y-137756370D01*
X155838645Y-137700000D01*
X155998065Y-137700000D01*
X156005788Y-137778414D01*
X156028660Y-137853814D01*
X156065803Y-137923303D01*
X156115789Y-137984211D01*
X156176697Y-138034197D01*
X156246186Y-138071340D01*
X156321586Y-138094212D01*
X156400000Y-138101935D01*
X156850000Y-138100000D01*
X156950000Y-138000000D01*
X156950000Y-137050000D01*
X157050000Y-137050000D01*
X157050000Y-138000000D01*
X157150000Y-138100000D01*
X157600000Y-138101935D01*
X157678414Y-138094212D01*
X157753814Y-138071340D01*
X157823303Y-138034197D01*
X157884211Y-137984211D01*
X157934197Y-137923303D01*
X157971340Y-137853814D01*
X157994212Y-137778414D01*
X158001935Y-137700000D01*
X158000000Y-137150000D01*
X157900000Y-137050000D01*
X157050000Y-137050000D01*
X156950000Y-137050000D01*
X156100000Y-137050000D01*
X156000000Y-137150000D01*
X155998065Y-137700000D01*
X155838645Y-137700000D01*
X155859474Y-137661032D01*
X155890855Y-137557584D01*
X155901451Y-137450001D01*
X155901451Y-136549999D01*
X155890855Y-136442416D01*
X155859474Y-136338968D01*
X155838646Y-136300000D01*
X155998065Y-136300000D01*
X156000000Y-136850000D01*
X156100000Y-136950000D01*
X156950000Y-136950000D01*
X156950000Y-136062500D01*
X156987500Y-136025000D01*
X156987500Y-136000000D01*
X157050000Y-136000000D01*
X157050000Y-136950000D01*
X157900000Y-136950000D01*
X158000000Y-136850000D01*
X158001935Y-136300000D01*
X157994212Y-136221586D01*
X157971340Y-136146186D01*
X157934197Y-136076697D01*
X157891047Y-136024118D01*
X157909211Y-136009211D01*
X157959197Y-135948303D01*
X157996340Y-135878814D01*
X158019212Y-135803414D01*
X158021839Y-135776735D01*
X160140000Y-135776735D01*
X160140000Y-136003265D01*
X160184194Y-136225443D01*
X160270884Y-136434729D01*
X160396737Y-136623082D01*
X160556918Y-136783263D01*
X160745271Y-136909116D01*
X160954557Y-136995806D01*
X161176735Y-137040000D01*
X161403265Y-137040000D01*
X161625443Y-136995806D01*
X161834729Y-136909116D01*
X162023082Y-136783263D01*
X162183263Y-136623082D01*
X162309116Y-136434729D01*
X162395806Y-136225443D01*
X162440000Y-136003265D01*
X162440000Y-135776735D01*
X162395806Y-135554557D01*
X162309116Y-135345271D01*
X162183263Y-135156918D01*
X162023082Y-134996737D01*
X161834729Y-134870884D01*
X161625443Y-134784194D01*
X161403265Y-134740000D01*
X161176735Y-134740000D01*
X160954557Y-134784194D01*
X160745271Y-134870884D01*
X160556918Y-134996737D01*
X160396737Y-135156918D01*
X160270884Y-135345271D01*
X160184194Y-135554557D01*
X160140000Y-135776735D01*
X158021839Y-135776735D01*
X158026935Y-135725000D01*
X158025000Y-135150000D01*
X157925000Y-135050000D01*
X157087500Y-135050000D01*
X157087500Y-135962500D01*
X157050000Y-136000000D01*
X156987500Y-136000000D01*
X156987500Y-135050000D01*
X156150000Y-135050000D01*
X156050000Y-135150000D01*
X156048065Y-135725000D01*
X156055788Y-135803414D01*
X156078660Y-135878814D01*
X156115803Y-135948303D01*
X156148892Y-135988622D01*
X156115789Y-136015789D01*
X156065803Y-136076697D01*
X156028660Y-136146186D01*
X156005788Y-136221586D01*
X155998065Y-136300000D01*
X155838646Y-136300000D01*
X155808515Y-136243630D01*
X155739935Y-136160065D01*
X155656370Y-136091485D01*
X155561032Y-136040526D01*
X155457584Y-136009145D01*
X155436536Y-136007072D01*
X155511031Y-135984474D01*
X155606370Y-135933515D01*
X155689935Y-135864935D01*
X155758515Y-135781370D01*
X155809474Y-135686031D01*
X155840855Y-135582583D01*
X155851451Y-135475000D01*
X155851451Y-134525000D01*
X155840855Y-134417417D01*
X155809474Y-134313969D01*
X155758515Y-134218630D01*
X155689935Y-134135065D01*
X155606370Y-134066485D01*
X155512500Y-134016311D01*
X155512500Y-133983689D01*
X155606370Y-133933515D01*
X155689935Y-133864935D01*
X155758515Y-133781370D01*
X155788644Y-133725000D01*
X156048065Y-133725000D01*
X156055788Y-133803414D01*
X156078660Y-133878814D01*
X156115803Y-133948303D01*
X156158230Y-134000000D01*
X156115803Y-134051697D01*
X156078660Y-134121186D01*
X156055788Y-134196586D01*
X156048065Y-134275000D01*
X156050000Y-134850000D01*
X156150000Y-134950000D01*
X156987500Y-134950000D01*
X156987500Y-133050000D01*
X157087500Y-133050000D01*
X157087500Y-134950000D01*
X157925000Y-134950000D01*
X158025000Y-134850000D01*
X158026935Y-134275000D01*
X158019212Y-134196586D01*
X157996340Y-134121186D01*
X157959197Y-134051697D01*
X157916770Y-134000000D01*
X157959197Y-133948303D01*
X157996340Y-133878814D01*
X158019212Y-133803414D01*
X158026935Y-133725000D01*
X158025000Y-133150000D01*
X157925000Y-133050000D01*
X157087500Y-133050000D01*
X156987500Y-133050000D01*
X156150000Y-133050000D01*
X156050000Y-133150000D01*
X156048065Y-133725000D01*
X155788644Y-133725000D01*
X155809474Y-133686031D01*
X155840855Y-133582583D01*
X155851451Y-133475000D01*
X155851451Y-132525000D01*
X155840855Y-132417417D01*
X155809474Y-132313969D01*
X155788645Y-132275000D01*
X156048065Y-132275000D01*
X156050000Y-132850000D01*
X156150000Y-132950000D01*
X156987500Y-132950000D01*
X156987500Y-132930000D01*
X157087500Y-132930000D01*
X157087500Y-132950000D01*
X157925000Y-132950000D01*
X158025000Y-132850000D01*
X158026935Y-132275000D01*
X158019212Y-132196586D01*
X157996340Y-132121186D01*
X157959197Y-132051697D01*
X157909211Y-131990789D01*
X157848303Y-131940803D01*
X157778814Y-131903660D01*
X157703414Y-131880788D01*
X157691576Y-131879622D01*
X157739935Y-131839935D01*
X157808515Y-131756370D01*
X157859474Y-131661032D01*
X157865000Y-131642817D01*
X159941992Y-133719810D01*
X159959210Y-133740790D01*
X159980190Y-133758008D01*
X159980195Y-133758013D01*
X160008656Y-133781370D01*
X160042958Y-133809521D01*
X160138506Y-133860592D01*
X160242181Y-133892042D01*
X160270984Y-133894879D01*
X160396737Y-134083082D01*
X160556918Y-134243263D01*
X160745271Y-134369116D01*
X160954557Y-134455806D01*
X161176735Y-134500000D01*
X161403265Y-134500000D01*
X161625443Y-134455806D01*
X161834729Y-134369116D01*
X162023082Y-134243263D01*
X162183263Y-134083082D01*
X162309116Y-133894729D01*
X162395806Y-133685443D01*
X162440000Y-133463265D01*
X162440000Y-133236735D01*
X162395806Y-133014557D01*
X162309116Y-132805271D01*
X162183263Y-132616918D01*
X162023082Y-132456737D01*
X161834729Y-132330884D01*
X161625443Y-132244194D01*
X161403265Y-132200000D01*
X161176735Y-132200000D01*
X160954557Y-132244194D01*
X160745271Y-132330884D01*
X160556918Y-132456737D01*
X160396737Y-132616918D01*
X160395935Y-132618118D01*
X158408013Y-130630196D01*
X158390790Y-130609210D01*
X158307042Y-130540479D01*
X158211494Y-130489408D01*
X158107819Y-130457958D01*
X158027018Y-130450000D01*
X158027008Y-130450000D01*
X158000000Y-130447340D01*
X157972992Y-130450000D01*
X157891602Y-130450000D01*
X157890855Y-130442416D01*
X157859474Y-130338968D01*
X157808515Y-130243630D01*
X157739935Y-130160065D01*
X157656370Y-130091485D01*
X157561032Y-130040526D01*
X157457584Y-130009145D01*
X157364733Y-130000000D01*
X157457584Y-129990855D01*
X157561032Y-129959474D01*
X157656370Y-129908515D01*
X157739935Y-129839935D01*
X157808515Y-129756370D01*
X157859474Y-129661032D01*
X157865000Y-129642817D01*
X159401987Y-131179804D01*
X159419210Y-131200790D01*
X159502958Y-131269521D01*
X159598506Y-131320592D01*
X159702181Y-131352042D01*
X159782982Y-131360000D01*
X159782989Y-131360000D01*
X159810000Y-131362660D01*
X159837011Y-131360000D01*
X160274406Y-131360000D01*
X160396737Y-131543082D01*
X160556918Y-131703263D01*
X160745271Y-131829116D01*
X160954557Y-131915806D01*
X161176735Y-131960000D01*
X161403265Y-131960000D01*
X161625443Y-131915806D01*
X161834729Y-131829116D01*
X162023082Y-131703263D01*
X162183263Y-131543082D01*
X162309116Y-131354729D01*
X162395806Y-131145443D01*
X162440000Y-130923265D01*
X162440000Y-130696735D01*
X162395806Y-130474557D01*
X162309116Y-130265271D01*
X162183263Y-130076918D01*
X162023082Y-129916737D01*
X161834729Y-129790884D01*
X161625443Y-129704194D01*
X161403265Y-129660000D01*
X161176735Y-129660000D01*
X160954557Y-129704194D01*
X160745271Y-129790884D01*
X160556918Y-129916737D01*
X160396737Y-130076918D01*
X160274406Y-130260000D01*
X160037817Y-130260000D01*
X158408013Y-128630196D01*
X158390790Y-128609210D01*
X158307042Y-128540479D01*
X158211494Y-128489408D01*
X158107819Y-128457958D01*
X158027018Y-128450000D01*
X158027008Y-128450000D01*
X158000000Y-128447340D01*
X157972992Y-128450000D01*
X157891602Y-128450000D01*
X157890855Y-128442416D01*
X157859474Y-128338968D01*
X157808515Y-128243630D01*
X157739935Y-128160065D01*
X157656370Y-128091485D01*
X157561032Y-128040526D01*
X157457584Y-128009145D01*
X157364733Y-128000000D01*
X157457584Y-127990855D01*
X157561032Y-127959474D01*
X157656370Y-127908515D01*
X157739935Y-127839935D01*
X157808515Y-127756370D01*
X157859474Y-127661032D01*
X157890855Y-127557584D01*
X157891602Y-127550000D01*
X157972183Y-127550000D01*
X159061992Y-128639810D01*
X159079210Y-128660790D01*
X159100190Y-128678008D01*
X159100195Y-128678013D01*
X159118406Y-128692958D01*
X159162958Y-128729521D01*
X159258506Y-128780592D01*
X159362181Y-128812042D01*
X159442982Y-128820000D01*
X159442991Y-128820000D01*
X159469999Y-128822660D01*
X159497007Y-128820000D01*
X160274406Y-128820000D01*
X160396737Y-129003082D01*
X160556918Y-129163263D01*
X160745271Y-129289116D01*
X160954557Y-129375806D01*
X161176735Y-129420000D01*
X161403265Y-129420000D01*
X161625443Y-129375806D01*
X161834729Y-129289116D01*
X162023082Y-129163263D01*
X162183263Y-129003082D01*
X162309116Y-128814729D01*
X162395806Y-128605443D01*
X162440000Y-128383265D01*
X162440000Y-128156735D01*
X162395806Y-127934557D01*
X162309116Y-127725271D01*
X162183263Y-127536918D01*
X162023082Y-127376737D01*
X161834729Y-127250884D01*
X161625443Y-127164194D01*
X161403265Y-127120000D01*
X161176735Y-127120000D01*
X160954557Y-127164194D01*
X160745271Y-127250884D01*
X160556918Y-127376737D01*
X160396737Y-127536918D01*
X160274406Y-127720000D01*
X159697818Y-127720000D01*
X158608013Y-126630196D01*
X158590790Y-126609210D01*
X158507042Y-126540479D01*
X158411494Y-126489408D01*
X158307819Y-126457958D01*
X158227018Y-126450000D01*
X158227008Y-126450000D01*
X158200000Y-126447340D01*
X158172992Y-126450000D01*
X157891602Y-126450000D01*
X157890855Y-126442416D01*
X157859474Y-126338968D01*
X157808515Y-126243630D01*
X157739935Y-126160065D01*
X157656370Y-126091485D01*
X157561032Y-126040526D01*
X157457584Y-126009145D01*
X157350001Y-125998549D01*
X156649999Y-125998549D01*
X156542416Y-126009145D01*
X156438968Y-126040526D01*
X156343630Y-126091485D01*
X156260065Y-126160065D01*
X156191485Y-126243630D01*
X156140526Y-126338968D01*
X156109145Y-126442416D01*
X156098549Y-126549999D01*
X156098549Y-127450001D01*
X156109145Y-127557584D01*
X156140526Y-127661032D01*
X156191485Y-127756370D01*
X156260065Y-127839935D01*
X156343630Y-127908515D01*
X156438968Y-127959474D01*
X156542416Y-127990855D01*
X156635267Y-128000000D01*
X156542416Y-128009145D01*
X156438968Y-128040526D01*
X156343630Y-128091485D01*
X156260065Y-128160065D01*
X156191485Y-128243630D01*
X156140526Y-128338968D01*
X156109145Y-128442416D01*
X156098549Y-128549999D01*
X156098549Y-129450001D01*
X156109145Y-129557584D01*
X156140526Y-129661032D01*
X156191485Y-129756370D01*
X156260065Y-129839935D01*
X156343630Y-129908515D01*
X156438968Y-129959474D01*
X156542416Y-129990855D01*
X156635267Y-130000000D01*
X156542416Y-130009145D01*
X156438968Y-130040526D01*
X156343630Y-130091485D01*
X156260065Y-130160065D01*
X156191485Y-130243630D01*
X156140526Y-130338968D01*
X156109145Y-130442416D01*
X156098549Y-130549999D01*
X156098549Y-131450001D01*
X156109145Y-131557584D01*
X156140526Y-131661032D01*
X156191485Y-131756370D01*
X156260065Y-131839935D01*
X156326507Y-131894462D01*
X156296186Y-131903660D01*
X156226697Y-131940803D01*
X156165789Y-131990789D01*
X156115803Y-132051697D01*
X156078660Y-132121186D01*
X156055788Y-132196586D01*
X156048065Y-132275000D01*
X155788645Y-132275000D01*
X155758515Y-132218630D01*
X155689935Y-132135065D01*
X155606370Y-132066485D01*
X155550000Y-132036355D01*
X155550000Y-131962821D01*
X155561032Y-131959474D01*
X155656370Y-131908515D01*
X155739935Y-131839935D01*
X155808515Y-131756370D01*
X155859474Y-131661032D01*
X155890855Y-131557584D01*
X155901451Y-131450001D01*
X155901451Y-130549999D01*
X155890855Y-130442416D01*
X155859474Y-130338968D01*
X155808515Y-130243630D01*
X155739935Y-130160065D01*
X155656370Y-130091485D01*
X155561032Y-130040526D01*
X155550000Y-130037179D01*
X155550000Y-129962821D01*
X155561032Y-129959474D01*
X155656370Y-129908515D01*
X155739935Y-129839935D01*
X155808515Y-129756370D01*
X155859474Y-129661032D01*
X155890855Y-129557584D01*
X155901451Y-129450001D01*
X155901451Y-128549999D01*
X155890855Y-128442416D01*
X155859474Y-128338968D01*
X155808515Y-128243630D01*
X155739935Y-128160065D01*
X155656370Y-128091485D01*
X155561032Y-128040526D01*
X155550000Y-128037179D01*
X155550000Y-127962821D01*
X155561032Y-127959474D01*
X155656370Y-127908515D01*
X155739935Y-127839935D01*
X155808515Y-127756370D01*
X155859474Y-127661032D01*
X155890855Y-127557584D01*
X155901451Y-127450001D01*
X155901451Y-126549999D01*
X155890855Y-126442416D01*
X155859474Y-126338968D01*
X155808515Y-126243630D01*
X155739935Y-126160065D01*
X155656370Y-126091485D01*
X155561032Y-126040526D01*
X155457584Y-126009145D01*
X155350001Y-125998549D01*
X154649999Y-125998549D01*
X154542416Y-126009145D01*
X154438968Y-126040526D01*
X154343630Y-126091485D01*
X154260065Y-126160065D01*
X154191485Y-126243630D01*
X154140526Y-126338968D01*
X154109145Y-126442416D01*
X154098549Y-126549999D01*
X154098549Y-127450001D01*
X154109145Y-127557584D01*
X154140526Y-127661032D01*
X154191485Y-127756370D01*
X154260065Y-127839935D01*
X154343630Y-127908515D01*
X154438968Y-127959474D01*
X154450001Y-127962821D01*
X154450000Y-128037179D01*
X154438968Y-128040526D01*
X154343630Y-128091485D01*
X154260065Y-128160065D01*
X154191485Y-128243630D01*
X154140526Y-128338968D01*
X154109145Y-128442416D01*
X154098549Y-128549999D01*
X154098549Y-129450001D01*
X154109145Y-129557584D01*
X154140526Y-129661032D01*
X154191485Y-129756370D01*
X154260065Y-129839935D01*
X154343630Y-129908515D01*
X154438968Y-129959474D01*
X154450000Y-129962821D01*
X154450001Y-130037179D01*
X154438968Y-130040526D01*
X154343630Y-130091485D01*
X154260065Y-130160065D01*
X154191485Y-130243630D01*
X154140526Y-130338968D01*
X154109145Y-130442416D01*
X154098549Y-130549999D01*
X154098549Y-131450001D01*
X154109145Y-131557584D01*
X154140526Y-131661032D01*
X154191485Y-131756370D01*
X154260065Y-131839935D01*
X154343630Y-131908515D01*
X154438968Y-131959474D01*
X154450000Y-131962821D01*
X154450001Y-132004596D01*
X154413969Y-132015526D01*
X154318630Y-132066485D01*
X154235065Y-132135065D01*
X154166485Y-132218630D01*
X154115526Y-132313969D01*
X154084145Y-132417417D01*
X154073549Y-132525000D01*
X154073549Y-133475000D01*
X154084145Y-133582583D01*
X154115526Y-133686031D01*
X154166485Y-133781370D01*
X154235065Y-133864935D01*
X154318630Y-133933515D01*
X154412501Y-133983689D01*
X154412500Y-134016311D01*
X154318630Y-134066485D01*
X154235065Y-134135065D01*
X154166485Y-134218630D01*
X154115526Y-134313969D01*
X154110001Y-134332183D01*
X152758012Y-132980195D01*
X152740790Y-132959210D01*
X152657042Y-132890479D01*
X152561494Y-132839408D01*
X152457819Y-132807958D01*
X152377018Y-132800000D01*
X152377008Y-132800000D01*
X152350000Y-132797340D01*
X152322992Y-132800000D01*
X152145594Y-132800000D01*
X152023263Y-132616918D01*
X151863082Y-132456737D01*
X151674729Y-132330884D01*
X151465443Y-132244194D01*
X151243265Y-132200000D01*
X151016735Y-132200000D01*
X150794557Y-132244194D01*
X150585271Y-132330884D01*
X150396918Y-132456737D01*
X150236737Y-132616918D01*
X150110884Y-132805271D01*
X150024194Y-133014557D01*
X149980000Y-133236735D01*
X149825000Y-133236735D01*
X149825000Y-130696735D01*
X149980000Y-130696735D01*
X149980000Y-130923265D01*
X150024194Y-131145443D01*
X150110884Y-131354729D01*
X150236737Y-131543082D01*
X150396918Y-131703263D01*
X150585271Y-131829116D01*
X150794557Y-131915806D01*
X151016735Y-131960000D01*
X151243265Y-131960000D01*
X151465443Y-131915806D01*
X151674729Y-131829116D01*
X151863082Y-131703263D01*
X152023263Y-131543082D01*
X152149116Y-131354729D01*
X152235806Y-131145443D01*
X152280000Y-130923265D01*
X152280000Y-130696735D01*
X152235806Y-130474557D01*
X152149116Y-130265271D01*
X152023263Y-130076918D01*
X151863082Y-129916737D01*
X151674729Y-129790884D01*
X151465443Y-129704194D01*
X151243265Y-129660000D01*
X151016735Y-129660000D01*
X150794557Y-129704194D01*
X150585271Y-129790884D01*
X150396918Y-129916737D01*
X150236737Y-130076918D01*
X150110884Y-130265271D01*
X150024194Y-130474557D01*
X149980000Y-130696735D01*
X149825000Y-130696735D01*
X149825000Y-129120000D01*
X149878065Y-129120000D01*
X149885788Y-129198414D01*
X149908660Y-129273814D01*
X149945803Y-129343303D01*
X149995789Y-129404211D01*
X150056697Y-129454197D01*
X150126186Y-129491340D01*
X150201586Y-129514212D01*
X150280000Y-129521935D01*
X150980000Y-129520000D01*
X151080000Y-129420000D01*
X151080000Y-128320000D01*
X151180000Y-128320000D01*
X151180000Y-129420000D01*
X151280000Y-129520000D01*
X151980000Y-129521935D01*
X152058414Y-129514212D01*
X152133814Y-129491340D01*
X152203303Y-129454197D01*
X152264211Y-129404211D01*
X152314197Y-129343303D01*
X152351340Y-129273814D01*
X152374212Y-129198414D01*
X152381935Y-129120000D01*
X152380000Y-128420000D01*
X152280000Y-128320000D01*
X151180000Y-128320000D01*
X151080000Y-128320000D01*
X149980000Y-128320000D01*
X149880000Y-128420000D01*
X149878065Y-129120000D01*
X149825000Y-129120000D01*
X149825000Y-127420000D01*
X149878065Y-127420000D01*
X149880000Y-128120000D01*
X149980000Y-128220000D01*
X151080000Y-128220000D01*
X151080000Y-127120000D01*
X151180000Y-127120000D01*
X151180000Y-128220000D01*
X152280000Y-128220000D01*
X152380000Y-128120000D01*
X152381935Y-127420000D01*
X152374212Y-127341586D01*
X152351340Y-127266186D01*
X152314197Y-127196697D01*
X152264211Y-127135789D01*
X152203303Y-127085803D01*
X152133814Y-127048660D01*
X152058414Y-127025788D01*
X151980000Y-127018065D01*
X151280000Y-127020000D01*
X151180000Y-127120000D01*
X151080000Y-127120000D01*
X150980000Y-127020000D01*
X150280000Y-127018065D01*
X150201586Y-127025788D01*
X150126186Y-127048660D01*
X150056697Y-127085803D01*
X149995789Y-127135789D01*
X149945803Y-127196697D01*
X149908660Y-127266186D01*
X149885788Y-127341586D01*
X149878065Y-127420000D01*
X149825000Y-127420000D01*
X149825000Y-127015896D01*
X149848906Y-126772078D01*
X149915100Y-126552835D01*
X150022614Y-126350630D01*
X150167361Y-126173153D01*
X150343824Y-126027171D01*
X150545276Y-125918246D01*
X150764047Y-125850526D01*
X151006915Y-125825000D01*
X161484104Y-125825000D01*
X161727922Y-125848906D01*
G37*
%TD.AperFunction*%
%TD*%
M02*
