%TF.GenerationSoftware,KiCad,Pcbnew,(5.1.10)-1*%
%TF.CreationDate,2021-11-22T19:14:46+01:00*%
%TF.ProjectId,Adapter-VCNL4200,41646170-7465-4722-9d56-434e4c343230,rev?*%
%TF.SameCoordinates,Original*%
%TF.FileFunction,Copper,L1,Top*%
%TF.FilePolarity,Positive*%
%FSLAX46Y46*%
G04 Gerber Fmt 4.6, Leading zero omitted, Abs format (unit mm)*
G04 Created by KiCad (PCBNEW (5.1.10)-1) date 2021-11-22 19:14:46*
%MOMM*%
%LPD*%
G01*
G04 APERTURE LIST*
%TA.AperFunction,ComponentPad*%
%ADD10O,1.700000X1.700000*%
%TD*%
%TA.AperFunction,ComponentPad*%
%ADD11C,1.700000*%
%TD*%
%TA.AperFunction,ComponentPad*%
%ADD12R,1.700000X1.700000*%
%TD*%
%TA.AperFunction,Conductor*%
%ADD13C,0.500000*%
%TD*%
G04 APERTURE END LIST*
%TO.P,U1,10*%
%TO.N,/SCLK*%
%TA.AperFunction,SMDPad,CuDef*%
G36*
G01*
X158750000Y-129200000D02*
X156950000Y-129200000D01*
G75*
G02*
X156650000Y-128900000I0J300000D01*
G01*
X156650000Y-128300000D01*
G75*
G02*
X156950000Y-128000000I300000J0D01*
G01*
X158750000Y-128000000D01*
G75*
G02*
X159050000Y-128300000I0J-300000D01*
G01*
X159050000Y-128900000D01*
G75*
G02*
X158750000Y-129200000I-300000J0D01*
G01*
G37*
%TD.AperFunction*%
%TO.P,U1,9*%
%TO.N,/SDAT*%
%TA.AperFunction,SMDPad,CuDef*%
G36*
G01*
X158750000Y-130900000D02*
X156950000Y-130900000D01*
G75*
G02*
X156650000Y-130600000I0J300000D01*
G01*
X156650000Y-130000000D01*
G75*
G02*
X156950000Y-129700000I300000J0D01*
G01*
X158750000Y-129700000D01*
G75*
G02*
X159050000Y-130000000I0J-300000D01*
G01*
X159050000Y-130600000D01*
G75*
G02*
X158750000Y-130900000I-300000J0D01*
G01*
G37*
%TD.AperFunction*%
%TO.P,U1,8*%
%TO.N,/INT*%
%TA.AperFunction,SMDPad,CuDef*%
G36*
G01*
X158750000Y-132600000D02*
X156950000Y-132600000D01*
G75*
G02*
X156650000Y-132300000I0J300000D01*
G01*
X156650000Y-131700000D01*
G75*
G02*
X156950000Y-131400000I300000J0D01*
G01*
X158750000Y-131400000D01*
G75*
G02*
X159050000Y-131700000I0J-300000D01*
G01*
X159050000Y-132300000D01*
G75*
G02*
X158750000Y-132600000I-300000J0D01*
G01*
G37*
%TD.AperFunction*%
%TO.P,U1,7*%
%TO.N,N/C*%
%TA.AperFunction,SMDPad,CuDef*%
G36*
G01*
X158750000Y-134300000D02*
X156950000Y-134300000D01*
G75*
G02*
X156650000Y-134000000I0J300000D01*
G01*
X156650000Y-133400000D01*
G75*
G02*
X156950000Y-133100000I300000J0D01*
G01*
X158750000Y-133100000D01*
G75*
G02*
X159050000Y-133400000I0J-300000D01*
G01*
X159050000Y-134000000D01*
G75*
G02*
X158750000Y-134300000I-300000J0D01*
G01*
G37*
%TD.AperFunction*%
%TO.P,U1,6*%
%TO.N,/LED+*%
%TA.AperFunction,SMDPad,CuDef*%
G36*
G01*
X158750000Y-136000000D02*
X156950000Y-136000000D01*
G75*
G02*
X156650000Y-135700000I0J300000D01*
G01*
X156650000Y-135100000D01*
G75*
G02*
X156950000Y-134800000I300000J0D01*
G01*
X158750000Y-134800000D01*
G75*
G02*
X159050000Y-135100000I0J-300000D01*
G01*
X159050000Y-135700000D01*
G75*
G02*
X158750000Y-136000000I-300000J0D01*
G01*
G37*
%TD.AperFunction*%
%TO.P,U1,5*%
%TO.N,/LED-*%
%TA.AperFunction,SMDPad,CuDef*%
G36*
G01*
X155550000Y-136000000D02*
X153750000Y-136000000D01*
G75*
G02*
X153450000Y-135700000I0J300000D01*
G01*
X153450000Y-135100000D01*
G75*
G02*
X153750000Y-134800000I300000J0D01*
G01*
X155550000Y-134800000D01*
G75*
G02*
X155850000Y-135100000I0J-300000D01*
G01*
X155850000Y-135700000D01*
G75*
G02*
X155550000Y-136000000I-300000J0D01*
G01*
G37*
%TD.AperFunction*%
%TO.P,U1,4*%
%TO.N,N/C*%
%TA.AperFunction,SMDPad,CuDef*%
G36*
G01*
X155550000Y-134300000D02*
X153750000Y-134300000D01*
G75*
G02*
X153450000Y-134000000I0J300000D01*
G01*
X153450000Y-133400000D01*
G75*
G02*
X153750000Y-133100000I300000J0D01*
G01*
X155550000Y-133100000D01*
G75*
G02*
X155850000Y-133400000I0J-300000D01*
G01*
X155850000Y-134000000D01*
G75*
G02*
X155550000Y-134300000I-300000J0D01*
G01*
G37*
%TD.AperFunction*%
%TO.P,U1,3*%
%TO.N,VCC*%
%TA.AperFunction,SMDPad,CuDef*%
G36*
G01*
X155550000Y-132600000D02*
X153750000Y-132600000D01*
G75*
G02*
X153450000Y-132300000I0J300000D01*
G01*
X153450000Y-131700000D01*
G75*
G02*
X153750000Y-131400000I300000J0D01*
G01*
X155550000Y-131400000D01*
G75*
G02*
X155850000Y-131700000I0J-300000D01*
G01*
X155850000Y-132300000D01*
G75*
G02*
X155550000Y-132600000I-300000J0D01*
G01*
G37*
%TD.AperFunction*%
%TO.P,U1,2*%
%TO.N,/LED_CATHODE*%
%TA.AperFunction,SMDPad,CuDef*%
G36*
G01*
X155550000Y-130900000D02*
X153750000Y-130900000D01*
G75*
G02*
X153450000Y-130600000I0J300000D01*
G01*
X153450000Y-130000000D01*
G75*
G02*
X153750000Y-129700000I300000J0D01*
G01*
X155550000Y-129700000D01*
G75*
G02*
X155850000Y-130000000I0J-300000D01*
G01*
X155850000Y-130600000D01*
G75*
G02*
X155550000Y-130900000I-300000J0D01*
G01*
G37*
%TD.AperFunction*%
%TO.P,U1,1*%
%TO.N,GND*%
%TA.AperFunction,SMDPad,CuDef*%
G36*
G01*
X155550000Y-129200000D02*
X153750000Y-129200000D01*
G75*
G02*
X153450000Y-128900000I0J300000D01*
G01*
X153450000Y-128300000D01*
G75*
G02*
X153750000Y-128000000I300000J0D01*
G01*
X155550000Y-128000000D01*
G75*
G02*
X155850000Y-128300000I0J-300000D01*
G01*
X155850000Y-128900000D01*
G75*
G02*
X155550000Y-129200000I-300000J0D01*
G01*
G37*
%TD.AperFunction*%
%TD*%
D10*
%TO.P,J2,4*%
%TO.N,/LED+*%
X161290000Y-135890000D03*
%TO.P,J2,3*%
%TO.N,/INT*%
X161290000Y-133350000D03*
%TO.P,J2,2*%
%TO.N,/SDAT*%
X161290000Y-130810000D03*
D11*
%TO.P,J2,1*%
%TO.N,/SCLK*%
X161290000Y-128270000D03*
%TD*%
D10*
%TO.P,J1,4*%
%TO.N,/LED-*%
X151130000Y-135890000D03*
%TO.P,J1,3*%
%TO.N,VCC*%
X151130000Y-133350000D03*
%TO.P,J1,2*%
%TO.N,/LED_CATHODE*%
X151130000Y-130810000D03*
D12*
%TO.P,J1,1*%
%TO.N,GND*%
X151130000Y-128270000D03*
%TD*%
D13*
%TO.N,GND*%
X152470000Y-128270000D02*
X151130000Y-128270000D01*
X152800000Y-128600000D02*
X152470000Y-128270000D01*
X154650000Y-128600000D02*
X152800000Y-128600000D01*
%TO.N,VCC*%
X152050000Y-133350000D02*
X151130000Y-133350000D01*
X153400000Y-132000000D02*
X152050000Y-133350000D01*
X154650000Y-132000000D02*
X153400000Y-132000000D01*
%TO.N,/INT*%
X160350000Y-133350000D02*
X161290000Y-133350000D01*
X159000000Y-132000000D02*
X160350000Y-133350000D01*
X157850000Y-132000000D02*
X159000000Y-132000000D01*
%TO.N,/SDAT*%
X160210000Y-130810000D02*
X159700000Y-130300000D01*
X161290000Y-130810000D02*
X160210000Y-130810000D01*
X157850000Y-130300000D02*
X159700000Y-130300000D01*
%TO.N,/SCLK*%
X159980000Y-128270000D02*
X161290000Y-128270000D01*
X159650000Y-128600000D02*
X159980000Y-128270000D01*
X157850000Y-128600000D02*
X159650000Y-128600000D01*
%TO.N,/LED-*%
X151240000Y-136000000D02*
X151130000Y-135890000D01*
X152400000Y-136000000D02*
X151240000Y-136000000D01*
X153000000Y-135400000D02*
X152400000Y-136000000D01*
X153000000Y-135400000D02*
X154650000Y-135400000D01*
%TO.N,/LED+*%
X160290000Y-135890000D02*
X159800000Y-135400000D01*
X161290000Y-135890000D02*
X160290000Y-135890000D01*
X157850000Y-135400000D02*
X159800000Y-135400000D01*
%TO.N,/LED_CATHODE*%
X152190000Y-130810000D02*
X152700000Y-130300000D01*
X151130000Y-130810000D02*
X152190000Y-130810000D01*
X154650000Y-130300000D02*
X152700000Y-130300000D01*
%TD*%
M02*
